<svg xmlns="http://www.w3.org/2000/svg" viewBox="0 0 64 64" role="img" aria-label="Tag Along logo">
  <!-- v1.0.3-beta: Tag Along logo — shark silhouette with a research tag on its dorsal fin -->
  <!-- shark body, side profile facing right -->
  <path d="M4 32 L14 26 C18 24 22 24 26 26 L30 17 L36 26 C44 28 50 30 54 33 L58 35 C52 38 46 39 40 39 C32 40 26 40 22 38 L20 45 L15 38 L8 42 C6 38 4 34 4 32 Z" fill="#7fd4e6"/>
  <!-- gill slits -->
  <path d="M44 32 L46 37 M48 32 L50 37" stroke="#0b2237" stroke-width="1.2" stroke-linecap="round"/>
  <!-- eye -->
  <circle cx="51" cy="34" r="1.3" fill="#0b2237"/>
  <!-- research tag on dorsal fin -->
  <rect x="29.2" y="8" width="5.6" height="10" rx="1.6" fill="#ffd166"/>
  <circle cx="32" cy="11.5" r="1.1" fill="#0b2237"/>
</svg>
